# xmcd CD database file
#
# Track frame offsets:
#	150
#	12140
#	22567
#	37322
#	58390
#	72682
#	85615
#	101575
#	118210
#	138110
#	154812
#	173172
#	195017
#	209845
#	225972
#	243852
#	252987
#	270080
#	290397
#	303545
#	317212
#
# Disc length: 4353 seconds
#
# Revision: 0
# Processed by: cddbd v1.5.2PL0 Copyright (c) Steve Scherf et al.
# Submitted via: CDex 1.51
#
DISCID=1d10ff15
DTITLE=Milan Pilar - Nostro Mondo
DYEAR=1993
DGENRE=New Age
TTITLE0=Nocturne
TTITLE1=Strange Symbols
TTITLE2=Valley Of Peace
TTITLE3=Birds
TTITLE4=Lotus Garden
TTITLE5=Alfama
TTITLE6=Over the Summits
TTITLE7=Oasis
TTITLE8=Nostro Mondo
TTITLE9=Caravanserai
TTITLE10=Conversation
TTITLE11=Terra Nova
TTITLE12=Sunset Over the Sea
TTITLE13=Confession
TTITLE14=Smooth Sea
TTITLE15=Calm
TTITLE16=Rituals
TTITLE17=Swamp
TTITLE18=Secret Wishes
TTITLE19=Rising Sun
TTITLE20=Classical Fanfare
EXTD=YEAR: 1993
EXTT0=
EXTT1=
EXTT2=
EXTT3=
EXTT4=
EXTT5=
EXTT6=
EXTT7=
EXTT8=
EXTT9=
EXTT10=
EXTT11=
EXTT12=
EXTT13=
EXTT14=
EXTT15=
EXTT16=
EXTT17=
EXTT18=
EXTT19=
EXTT20=
PLAYORDER=
